# xmcd
#
# Track frame offsets:
#	150
#	14758
#	28419
#	41788
#	53394
#	68894
#	83567
#	96143
#	118704
#	131552
#	143666
#	160104
#	182485
#	195854
#	211354
#	223930
#	236778
#	248892
#
# Disc length: 3614 seconds
#
# Revision: 1
# Processed by: cddbd v1.5.2PL0 Copyright (c) Steve Scherf et al.
# Submitted via: audiograbber 1.83.01
#
DISCID=fe0e1c12
DTITLE=MARIACHI - MARIACHI
DYEAR=1900
DGENRE=
TTITLE0=LLORARAS
TTITLE1=ME EQUIVOQUE CONTIGO
TTITLE2=MI CARIÑITO
TTITLE3=PA´TODO EL AÑO
TTITLE4=QUE BONITA ES MI TIERRA
TTITLE5=QUE CHULADA DE MUJER
TTITLE6=QUE TE VAYA BONITO
TTITLE7=QUIZAS MAÑANA
TTITLE8=SERENATA HUASTECA
TTITLE9=TE TRAIGO SERENATA
TTITLE10=UNJ MUNDO RARO
TTITLE11=RESULTA
TTITLE12=BORRAR
TTITLE13=BORRAR
TTITLE14=BORRAR
TTITLE15=BORRAR
TTITLE16=BORRAR
TTITLE17=BORRAR
EXTD=
EXTT0=
EXTT1=
EXTT2=
EXTT3=
EXTT4=
EXTT5=
EXTT6=
EXTT7=
EXTT8=
EXTT9=
EXTT10=
EXTT11=
EXTT12=
EXTT13=
EXTT14=
EXTT15=
EXTT16=
EXTT17=
PLAYORDER=
